<svg width="32" height="31" viewBox="0 0 32 31" fill="none" xmlns="http://www.w3.org/2000/svg">
<path fill-rule="evenodd" clip-rule="evenodd" d="M16.002 0.0473633C7.61397 0.0473633 0.813965 6.84736 0.813965 15.2354C0.813965 23.6194 7.61397 30.4194 16.002 30.4194C24.386 30.4194 31.186 23.6194 31.186 15.2354C31.186 6.84736 24.386 0.0473633 16.002 0.0473633ZM18.19 11.1954H22.19V12.3954H18.19V11.1954ZM15.914 18.3434C15.746 18.6234 15.53 18.8594 15.274 19.0474C14.986 19.2674 14.646 19.4034 14.25 19.4874C13.858 19.5674 13.434 19.5954 12.974 19.5954H8.98996V10.7954H13.266C14.374 10.7954 15.154 11.0714 15.614 11.6914C15.89 12.0714 16.03 12.4994 16.03 13.0274C16.03 13.5714 15.89 13.9954 15.61 14.3274C15.454 14.5154 15.226 14.6794 14.922 14.8314C15.382 14.9994 15.73 15.2554 15.966 15.6154C16.202 15.9754 16.318 16.4074 16.318 16.9194C16.318 17.4514 16.186 17.9274 15.914 18.3434ZM23.542 16.7954H18.666C18.694 17.5954 18.926 17.9154 19.366 18.1794C19.634 18.3474 19.954 18.4234 20.33 18.4234C20.73 18.4234 21.054 18.2954 21.302 18.0954C21.3297 18.0733 21.3569 18.0561 21.3836 18.0393C21.4875 17.9737 21.5824 17.9138 21.662 17.5954H23.45C23.402 17.9954 23.186 18.4314 22.802 18.8354C22.202 19.4754 21.362 19.8434 20.282 19.8434C19.39 19.8434 18.606 19.5714 17.926 19.0314C17.242 18.4874 16.902 17.6074 16.902 16.3834C16.902 15.2394 17.21 14.3634 17.826 13.7514C18.442 13.1434 19.238 12.8354 20.218 12.8354C20.802 12.8354 21.326 12.9394 21.794 13.1434C22.262 13.3514 22.646 13.6754 22.95 14.1234C23.226 14.5154 23.402 14.9674 23.486 15.4834C23.534 15.7874 23.55 16.3954 23.542 16.7954ZM20.218 14.2434C19.77 14.2434 19.422 14.3554 19.174 14.6074C18.926 14.8554 18.77 15.1954 18.706 15.5954H21.726C21.694 15.1954 21.538 14.8154 21.258 14.5754C20.978 14.3394 20.634 14.2434 20.218 14.2434ZM14.41 16.7954C14.41 17.3434 14.21 17.6794 13.814 17.8714C13.594 17.9794 13.29 17.9954 12.894 17.9954H10.59V15.5954H12.926C13.314 15.5954 13.618 15.6954 13.834 15.7914C14.218 15.9674 14.41 16.3274 14.41 16.7954ZM10.59 14.3954H12.898C13.29 14.3954 13.61 14.2454 13.858 14.0974C14.102 13.9494 14.226 13.6154 14.226 13.2394C14.226 12.8234 14.062 12.5874 13.738 12.4554C13.5176 12.383 13.2503 12.3874 12.9358 12.3925C12.8506 12.3939 12.762 12.3954 12.67 12.3954H10.59V14.3954Z" fill="#2A2B31"/>
</svg>
