<svg width="31" height="31" viewBox="0 0 31 31" fill="none" xmlns="http://www.w3.org/2000/svg">
<path fill-rule="evenodd" clip-rule="evenodd" d="M15.3023 0.462891C6.91426 0.462891 0.114258 7.26289 0.114258 15.6509C0.114258 24.0349 6.91426 30.8349 15.3023 30.8349C23.6863 30.8349 30.4863 24.0349 30.4863 15.6509C30.4863 7.26289 23.6863 0.462891 15.3023 0.462891ZM22.6903 22.0709C22.6903 22.5189 22.4703 22.9953 22.0263 22.9953H18.2903V17.3953H20.1903L20.4783 14.9953H18.2903V13.5629C18.2903 12.9229 18.4623 12.5953 19.3823 12.5953H20.6903V10.5029C20.2903 10.4749 19.6703 10.4149 18.8583 10.4149C17.1703 10.4149 15.8903 11.4469 15.8903 13.3429V14.9953H13.8903V17.3953H15.8903V22.9953H8.96226C8.51426 22.9953 8.29026 22.5189 8.29026 22.0709V9.00689C8.29026 8.55889 8.51426 8.19529 8.96226 8.19529H22.0263C22.4703 8.19529 22.6903 8.55889 22.6903 9.00689V22.0709Z" fill="#2A2B31"/>
</svg>
