<svg width="31" height="31" viewBox="0 0 31 31" fill="none" xmlns="http://www.w3.org/2000/svg">
<path fill-rule="evenodd" clip-rule="evenodd" d="M15.6021 0.50293C7.21406 0.50293 0.414062 7.30293 0.414062 15.6909C0.414062 24.0749 7.21406 30.8749 15.6021 30.8749C23.9861 30.8749 30.7861 24.0749 30.7861 15.6909C30.7861 7.30293 23.9861 0.50293 15.6021 0.50293ZM12.6541 21.0189C9.82206 21.0189 7.52606 18.6589 7.52606 15.8229C7.52606 12.9869 9.82206 10.6529 12.6541 10.6529C13.9821 10.6529 15.1941 11.1477 16.1021 11.9757C15.0301 12.9917 15.0661 13.0433 14.6421 13.4673C14.1181 13.0273 13.5421 12.7089 12.6541 12.7089C10.9701 12.7089 9.65806 14.0761 9.65806 15.7601C9.65806 17.4441 10.9701 18.9237 12.6541 18.9237C14.3141 18.9237 14.9901 18.1953 15.4261 16.9953C14.6221 16.9953 12.7141 16.9953 12.7141 16.9953V14.9953H17.5781C17.9181 17.3953 16.8861 21.0189 12.6541 21.0189ZM23.5141 16.1953H21.9141V18.1953H20.7141V16.1953H18.7141V14.9953H20.7141V13.3953H21.9141V14.9953H23.5141V16.1953Z" fill="#2A2B31"/>
</svg>
