<svg width="31" height="31" viewBox="0 0 31 31" fill="none" xmlns="http://www.w3.org/2000/svg">
<path fill-rule="evenodd" clip-rule="evenodd" d="M15.7022 0.0473633C7.31416 0.0473633 0.51416 6.84736 0.51416 15.2354C0.51416 23.6194 7.31416 30.4194 15.7022 30.4194C24.0862 30.4194 30.8862 23.6194 30.8862 15.2354C30.8862 6.84736 24.0862 0.0473633 15.7022 0.0473633ZM9.09016 12.7954H11.8902V21.9954H9.09016V12.7954ZM10.3262 11.9954H10.3062C9.26216 11.9954 8.59016 11.1994 8.59016 10.3154C8.59016 9.41536 9.28216 8.68336 10.3462 8.68336C11.4062 8.68336 12.0582 9.43936 12.0822 10.3394C12.0822 11.2234 11.4062 11.9954 10.3262 11.9954ZM23.4902 21.9954H19.8902V17.3354C19.8902 16.0994 19.4782 15.2594 18.3542 15.2594C17.4982 15.2594 17.0022 15.8274 16.7782 16.3754C16.6942 16.5714 16.6902 16.8434 16.6902 17.1194V21.9954H13.5942C13.5942 21.9954 13.6342 13.5954 13.5942 12.7954H16.6902V14.3674C17.0902 13.7434 18.0502 12.8514 19.6982 12.8514C21.7422 12.8514 23.4902 14.1594 23.4902 16.9834V21.9954Z" fill="#2A2B31"/>
</svg>
