<svg width="31" height="31" viewBox="0 0 31 31" fill="none" xmlns="http://www.w3.org/2000/svg">
<path fill-rule="evenodd" clip-rule="evenodd" d="M15.4019 0.0473633C7.01387 0.0473633 0.213867 6.84736 0.213867 15.2354C0.213867 23.6194 7.01387 30.4194 15.4019 30.4194C23.7859 30.4194 30.5859 23.6194 30.5859 15.2354C30.5859 6.84736 23.7859 0.0473633 15.4019 0.0473633ZM21.1739 12.0154C21.1779 12.1514 21.1819 12.2874 21.1819 12.4234C21.1819 16.5874 18.0899 21.3914 12.4379 21.3914C10.7019 21.3914 9.08587 20.8674 7.72587 19.9754C7.96587 20.0034 8.20987 20.0194 8.45787 20.0194C9.89787 20.0194 11.2259 19.5154 12.2779 18.6714C10.9299 18.6434 9.79787 17.7354 9.40587 16.4834C9.59387 16.5194 9.78587 16.5394 9.98187 16.5394C10.2659 16.5394 10.5699 16.4994 10.8259 16.4274C9.41787 16.1394 8.38987 14.8634 8.38987 13.3354V13.2994C8.78987 13.5314 9.24987 13.6754 9.75387 13.6914C8.92587 13.1274 8.36987 12.1594 8.36987 11.0674C8.36987 10.4914 8.51387 9.94736 8.77787 9.48336C10.2939 11.3914 12.5539 12.6434 15.1099 12.7754C15.0539 12.5434 15.0279 12.3034 15.0279 12.0594C15.0279 10.3194 16.4027 8.90736 18.0991 8.90736C18.9831 8.90736 19.7823 9.28736 20.3423 9.89936C21.0423 9.75936 21.6983 9.49936 22.2943 9.13536C22.0663 9.87136 21.5779 10.4914 20.9419 10.8794C21.5659 10.8034 22.1579 10.6354 22.7059 10.3834C22.2979 11.0154 21.7739 11.5714 21.1739 12.0154Z" fill="white"/>
</svg>
