<svg width="16" height="17" viewBox="0 0 16 17" fill="none" xmlns="http://www.w3.org/2000/svg">
<path fill-rule="evenodd" clip-rule="evenodd" d="M1.94973 0.845703C1.37535 0.845703 0.909729 1.31133 0.909729 1.8857V15.4057C0.909729 15.9801 1.37535 16.4457 1.94973 16.4457H14.9693C15.5437 16.4457 16.0093 15.9801 16.0093 15.4057V1.8857C16.0093 1.31133 15.5437 0.845703 14.9693 0.845703H1.94973ZM3.42757 2.33349C3.14038 2.33349 2.90757 2.56631 2.90757 2.85349V4.49584C2.90757 4.78303 3.14038 5.01584 3.42757 5.01584H13.417C13.7042 5.01584 13.937 4.78303 13.937 4.49584V2.85349C13.937 2.56631 13.7042 2.33349 13.417 2.33349H3.42757ZM4.6131 7.8217C4.6131 7.53451 4.84591 7.3017 5.1331 7.3017H6.7811C7.06828 7.3017 7.3011 7.53451 7.3011 7.8217V9.4697C7.3011 9.75689 7.06828 9.9897 6.7811 9.9897H5.13309C4.84591 9.9897 4.6131 9.75689 4.6131 9.4697V7.8217ZM10.0635 7.3017C9.77628 7.3017 9.54347 7.53451 9.54347 7.8217V9.4697C9.54347 9.75689 9.77628 9.9897 10.0635 9.9897H11.7115C11.9987 9.9897 12.2315 9.75689 12.2315 9.4697V7.8217C12.2315 7.53451 11.9987 7.3017 11.7115 7.3017H10.0635ZM4.6131 12.2152C4.6131 11.928 4.84591 11.6952 5.1331 11.6952H6.7811C7.06828 11.6952 7.3011 11.928 7.3011 12.2152V13.8632C7.3011 14.1504 7.06828 14.3832 6.7811 14.3832H5.13309C4.84591 14.3832 4.6131 14.1504 4.6131 13.8632V12.2152ZM10.0635 11.6952C9.77628 11.6952 9.54347 11.928 9.54347 12.2152V13.8632C9.54347 14.1504 9.77628 14.3832 10.0635 14.3832H11.7115C11.9987 14.3832 12.2315 14.1504 12.2315 13.8632V12.2152C12.2315 11.928 11.9987 11.6952 11.7115 11.6952H10.0635Z" fill="#43444B"/>
</svg>
