<svg width="17" height="17" viewBox="0 0 17 17" fill="none" xmlns="http://www.w3.org/2000/svg">
<path fill-rule="evenodd" clip-rule="evenodd" d="M1.89956 0.944214C1.32518 0.944214 0.859558 1.40984 0.859558 1.98421V15.1042C0.859558 15.6786 1.32518 16.1442 1.89956 16.1442H15.0196C15.5939 16.1442 16.0596 15.6786 16.0596 15.1042V1.98421C16.0596 1.40984 15.5939 0.944214 15.0196 0.944214H1.89956ZM3.85286 4.64626C3.56568 4.64626 3.33286 4.87908 3.33286 5.16626V12.9083C3.33286 13.1955 3.56568 13.4283 3.85287 13.4283H4.73286C5.02005 13.4283 5.25286 13.1955 5.25286 12.9083V5.16626C5.25286 4.87908 5.02005 4.64626 4.73286 4.64626H3.85286ZM7.49956 7.76325C7.49956 7.47606 7.73237 7.24325 8.01956 7.24325H8.89956C9.18675 7.24325 9.41956 7.47606 9.41956 7.76325V12.9083C9.41956 13.1955 9.18675 13.4283 8.89956 13.4283H8.01956C7.73237 13.4283 7.49956 13.1955 7.49956 12.9083V7.76325ZM12.1863 9.84467C11.8991 9.84467 11.6663 10.0775 11.6663 10.3647V12.9083C11.6663 13.1955 11.8991 13.4283 12.1863 13.4283H13.0663C13.3534 13.4283 13.5863 13.1955 13.5863 12.9083V10.3647C13.5863 10.0775 13.3534 9.84467 13.0663 9.84467H12.1863Z" fill="#43444B"/>
</svg>
