<svg width="16" height="16" viewBox="0 0 16 16" fill="none" xmlns="http://www.w3.org/2000/svg">
<path fill-rule="evenodd" clip-rule="evenodd" d="M1.9927 0.229248C1.41832 0.229248 0.952698 0.694871 0.952698 1.26925V13.8292C0.952698 14.7129 1.66904 15.4292 2.5527 15.4292H4.47004H12.0006H14.3664C15.25 15.4292 15.9664 14.7129 15.9664 13.8292V4.45772C15.9664 3.88335 15.5007 3.41772 14.9264 3.41772H13.0406V1.26925C13.0406 0.694872 12.575 0.229248 12.0006 0.229248H1.9927ZM2.80748 2.79219C2.80748 2.50501 3.04029 2.27219 3.32748 2.27219H10.7074C10.9946 2.27219 11.2274 2.50501 11.2274 2.79219V5.30915C11.2274 5.59634 10.9946 5.82915 10.7074 5.82915H3.32748C3.04029 5.82915 2.80748 5.59634 2.80748 5.30915V2.79219ZM3.32748 7.82925C3.04029 7.82925 2.80748 8.06206 2.80748 8.34925V9.07725C2.80748 9.36444 3.04029 9.59725 3.32748 9.59725H10.7074C10.9946 9.59725 11.2274 9.36444 11.2274 9.07725V8.34925C11.2274 8.06206 10.9946 7.82925 10.7074 7.82925H3.32748ZM2.80748 11.6248C2.80748 11.3376 3.04029 11.1048 3.32748 11.1048H8.53231C8.8195 11.1048 9.05231 11.3376 9.05231 11.6248V12.3528C9.05231 12.64 8.8195 12.8728 8.53231 12.8728H3.32748C3.04029 12.8728 2.80748 12.64 2.80748 12.3528V11.6248ZM14.1668 5.82915H12.3988V12.3743C12.3988 12.8626 12.7946 13.2583 13.2828 13.2583C13.771 13.2583 14.1668 12.8626 14.1668 12.3743V5.82915Z" fill="#43444B"/>
</svg>
