<svg width="17" height="17" viewBox="0 0 17 17" fill="none" xmlns="http://www.w3.org/2000/svg">
<path fill-rule="evenodd" clip-rule="evenodd" d="M1.89956 0.560791C1.32518 0.560791 0.859558 1.02641 0.859558 1.60079V15.1208C0.859558 15.6952 1.32518 16.1608 1.89956 16.1608H14.6206C15.195 16.1608 15.6606 15.6952 15.6606 15.1208L15.6606 13.5608H6.97543C6.40105 13.5608 5.93543 13.0952 5.93543 12.5208V4.20079C5.93543 3.62642 6.40106 3.16079 6.97543 3.16079H15.6606L15.6606 1.60079C15.6606 1.02641 15.195 0.560791 14.6206 0.560791H1.89956ZM7.89672 5.76079C7.89672 5.18641 8.36235 4.72079 8.93672 4.72079H15.0196C15.5939 4.72079 16.0596 5.18641 16.0596 5.76079V10.9608C16.0596 11.5352 15.5939 12.0008 15.0196 12.0008H8.93672C8.36235 12.0008 7.89672 11.5352 7.89672 10.9608V5.76079ZM10.4639 7.02085C10.1768 7.02085 9.94394 7.25366 9.94394 7.54085V9.18885C9.94394 9.47604 10.1768 9.70885 10.4639 9.70885H11.9306C12.2178 9.70885 12.4506 9.47604 12.4506 9.18885V7.54085C12.4506 7.25366 12.2178 7.02085 11.9306 7.02085H10.4639Z" fill="#43444B"/>
</svg>
