<svg width="35" height="35" viewBox="0 0 35 35" fill="none" xmlns="http://www.w3.org/2000/svg">
<rect width="35" height="35" rx="2" fill="#65A028"/>
<path fill-rule="evenodd" clip-rule="evenodd" d="M25.3628 16.4283C25.7058 14.1356 23.9601 12.903 21.5731 12.0808L22.3474 8.97494L20.4568 8.50379L19.703 11.5278C19.206 11.4039 18.6955 11.2871 18.1883 11.1713L18.9475 8.1274L17.0581 7.65625L16.2832 10.761C15.8718 10.6673 15.468 10.5747 15.076 10.4773L15.0782 10.4676L12.4709 9.81656L11.968 11.8358C11.968 11.8358 13.3707 12.1572 13.3411 12.1772C14.1068 12.3683 14.2452 12.875 14.222 13.2767L13.34 16.8149C13.3928 16.8284 13.4612 16.8478 13.5365 16.8779L13.4725 16.8619C13.4286 16.851 13.3832 16.8396 13.3368 16.8284L12.1005 21.7849C12.0068 22.0176 11.7693 22.3665 11.2341 22.234C11.2529 22.2615 9.85993 21.891 9.85993 21.891L8.92139 24.0551L11.3816 24.6684C11.6564 24.7373 11.9278 24.808 12.1964 24.8781C12.3753 24.9247 12.5529 24.9711 12.7294 25.0163L11.947 28.1576L13.8354 28.6288L14.6102 25.5208C15.1261 25.6608 15.6268 25.79 16.1168 25.9117L15.3447 29.0052L17.2352 29.4763L18.0176 26.3409C21.2414 26.9509 23.6655 26.7049 24.6859 23.7891C25.5082 21.4414 24.645 20.0872 22.9488 19.2041C24.1841 18.9192 25.1145 18.1067 25.3628 16.4283ZM21.0432 22.4855C20.5072 24.6394 17.1358 23.7489 15.5932 23.3415L15.5931 23.3415C15.4544 23.3048 15.3304 23.2721 15.2246 23.2458L16.2628 19.084C16.3916 19.1162 16.549 19.1515 16.7272 19.1915L16.7273 19.1915C18.3227 19.5495 21.5925 20.2832 21.0432 22.4855ZM17.0478 17.2601C18.3339 17.6034 21.1393 18.352 21.628 16.3944C22.127 14.392 19.4004 13.7884 18.0688 13.4936C17.919 13.4605 17.7868 13.4312 17.6789 13.4043L16.7377 17.1789C16.8266 17.2011 16.9309 17.2289 17.0478 17.2601Z" fill="white"/>
</svg>
